<svg width="200" height="200" viewBox="0 0 200 200" fill="none" xmlns="http://www.w3.org/2000/svg">
  <!-- Main circular frame -->
  <circle cx="100" cy="100" r="95" fill="#0D0F11" stroke="#DEE450" stroke-width="2"/>
  
  <!-- Stylized "N" that forms both a book and network paths -->
  <path d="M60 60 L60 140 L85 140 L85 95 L115 140 L140 140 L140 60 L115 60 L115 105 L85 60 Z" fill="#DEE450"/>
  
  <!-- Digital connection nodes -->
  <circle cx="60" cy="60" r="6" fill="white"/>
  <circle cx="140" cy="60" r="6" fill="white"/>
  <circle cx="60" cy="140" r="6" fill="white"/>
  <circle cx="140" cy="140" r="6" fill="white"/>
  <circle cx="85" cy="95" r="6" fill="white"/>
  <circle cx="115" cy="105" r="6" fill="white"/>
  
  <!-- Subtle book pages on the left side -->
  <path d="M55 65 L55 135 L60 140 L60 60 Z" fill="#FFFFFF" opacity="0.6"/>
  
  <!-- Digital connection lines -->
  <path d="M60 60 L85 95" stroke="white" stroke-width="2" opacity="0.7"/>
  <path d="M85 95 L60 140" stroke="white" stroke-width="2" opacity="0.7"/>
  <path d="M140 60 L115 105" stroke="white" stroke-width="2" opacity="0.7"/>
  <path d="M115 105 L140 140" stroke="white" stroke-width="2" opacity="0.7"/>
  <path d="M85 95 L115 105" stroke="white" stroke-width="2" opacity="0.7"/>
</svg>

